<?xml version="1.0" encoding="utf-8"?>
<!-- Generator: Adobe Illustrator 24.3.0, SVG Export Plug-In . SVG Version: 6.00 Build 0)  -->
<svg version="1.1" id="Layer_1" xmlns="http://www.w3.org/2000/svg" xmlns:xlink="http://www.w3.org/1999/xlink" x="0px" y="0px"
	 viewBox="0 0 512 512" style="enable-background:new 0 0 512 512;" xml:space="preserve">
<style type="text/css">
	.st0{fill:#E11299;}
	.st1{fill:#FFFFFF;}
</style>
<path class="st0" d="M393,512H119C53.3,512,0,458.7,0,393V119C0,53.3,53.3,0,119,0h274c65.7,0,119,53.3,119,119v274
	C512,458.7,458.7,512,393,512z"/>
<path class="st1" d="M422.6,256c0,7.7-6.2,13.9-13.9,13.9h-34.2c-6.3,0-11.8,4.2-13.4,10.3l-23.3,86.7c-2.7,8.7-10.1,14.1-18.6,14.1
	h-0.2c-8.6-0.1-16-5.8-18.4-14.1l-45.5-183.6l-44.1,156c-2.7,8.3-9.6,13.6-17.8,13.9c-8.5,0.5-15.5-4.4-18.7-12l-22.2-62.1
	c-2-5.5-7.2-9.2-13.1-9.2h-36c-7.7,0-13.9-6.2-13.9-13.9s6.2-13.9,13.9-13.9h36c17.5,0,33.3,11.1,39.2,27.6l13,36.5l45.6-161.3
	c2.8-8.7,10.1-14.3,18.9-13.9c8.6,0.2,15.9,5.8,18.3,14.1l45.2,182.8l14.7-54.9c4.9-18.2,21.4-30.9,40.2-30.9h34.2
	C416.4,242.1,422.6,248.3,422.6,256L422.6,256z"/>
</svg>
