<?xml version="1.0" encoding="utf-8"?>
<!-- Generator: Adobe Illustrator 24.3.0, SVG Export Plug-In . SVG Version: 6.00 Build 0)  -->
<svg version="1.1" id="Layer_1" xmlns="http://www.w3.org/2000/svg" xmlns:xlink="http://www.w3.org/1999/xlink" x="0px" y="0px"
	 viewBox="0 0 24 24" style="enable-background:new 0 0 24 24;" xml:space="preserve">
<style type="text/css">
	.st0{fill:url(#SVGID_1_);}
</style>
<linearGradient id="SVGID_1_" gradientUnits="userSpaceOnUse" x1="5.2825" y1="2.3479" x2="18.7175" y2="15.7829">
	<stop  offset="0" style="stop-color:#FF929A"/>
	<stop  offset="1" style="stop-color:#FE5C8B"/>
</linearGradient>
<path class="st0" d="M14.1,10.5c-0.4-0.4-1-0.4-1.4,0L12,11.2c-0.8,0.8-2,0.8-2.8,0c-0.8-0.8-0.8-2,0-2.8l5.6-5.6
	c2.1-0.5,4.4,0.1,6,1.7c2.4,2.4,2.5,6.3,0.3,8.8l-2.1,2.1L14.1,10.5z M3.2,4.5c2.2-2.2,5.5-2.5,8-0.9L7.8,6.9
	c-1.6,1.6-1.6,4.1,0,5.7c1.5,1.5,3.9,1.6,5.5,0.1l0.1-0.1l4.2,4.2l-4.2,4.2c-0.8,0.8-2,0.8-2.8,0l-7.4-7.4C0.6,11.1,0.6,7,3.2,4.5z"
	/>
</svg>
