<?xml version="1.0" encoding="utf-8"?>
<!-- Generator: Adobe Illustrator 24.3.0, SVG Export Plug-In . SVG Version: 6.00 Build 0)  -->
<svg version="1.1" id="Capa_1" xmlns="http://www.w3.org/2000/svg" xmlns:xlink="http://www.w3.org/1999/xlink" x="0px" y="0px"
	 viewBox="0 0 512 512" style="enable-background:new 0 0 512 512;" xml:space="preserve">
<style type="text/css">
	.st0{fill:#0C134F;}
	.st1{fill:#FFFFFF;}
</style>
<path class="st0" d="M393,512H119C53.3,512,0,458.7,0,393V119C0,53.3,53.3,0,119,0h274c65.7,0,119,53.3,119,119v274
	C512,458.7,458.7,512,393,512z"/>
<g>
	<path class="st1" d="M290.2,187.7h34.2v34.2c0,11.3,9.2,20.5,20.5,20.5s20.5-9.2,20.5-20.5v-34.2h34.2c11.3,0,20.5-9.2,20.5-20.5
		c0-11.3-9.2-20.5-20.5-20.5h-34.2v-34.2c0-11.3-9.2-20.5-20.5-20.5c-11.3,0-20.5,9.2-20.5,20.5v34.2h-34.2
		c-11.3,0-20.5,9.2-20.5,20.5S278.8,187.7,290.2,187.7z"/>
	<path class="st1" d="M167.2,92C125.7,92,92,125.7,92,167.2s33.7,75.2,75.2,75.2s75.2-33.7,75.2-75.2C242.3,125.7,208.7,92,167.2,92
		z M167.2,201.3c-18.9,0-34.2-15.3-34.2-34.2s15.3-34.2,34.2-34.2s34.2,15.3,34.2,34.2S186,201.3,167.2,201.3z"/>
	<path class="st1" d="M167.2,269.7c-41.5,0-75.2,33.7-75.2,75.2s33.7,75.2,75.2,75.2s75.2-33.7,75.2-75.2
		C242.3,303.3,208.7,269.7,167.2,269.7z M167.2,379c-18.9,0-34.2-15.3-34.2-34.2c0-18.9,15.3-34.2,34.2-34.2s34.2,15.3,34.2,34.2
		C201.3,363.7,186,379,167.2,379z"/>
	<path class="st1" d="M344.8,269.7c-41.5,0-75.2,33.7-75.2,75.2s33.7,75.2,75.2,75.2s75.2-33.7,75.2-75.2
		C420,303.3,386.3,269.7,344.8,269.7z M344.8,379c-18.9,0-34.2-15.3-34.2-34.2c0-18.9,15.3-34.2,34.2-34.2
		c18.9,0,34.2,15.3,34.2,34.2C379,363.7,363.7,379,344.8,379z"/>
</g>
</svg>
