<?xml version="1.0" encoding="utf-8"?>
<!-- Generator: Adobe Illustrator 24.3.0, SVG Export Plug-In . SVG Version: 6.00 Build 0)  -->
<svg version="1.1" id="Outline" xmlns="http://www.w3.org/2000/svg" xmlns:xlink="http://www.w3.org/1999/xlink" x="0px" y="0px"
	 viewBox="0 0 512 512" style="enable-background:new 0 0 512 512;" xml:space="preserve">
<style type="text/css">
	.st0{fill:#D4ADFC;}
	.st1{fill:#FFFFFF;}
</style>
<path class="st0" d="M393,512H119C53.3,512,0,458.7,0,393V119C0,53.3,53.3,0,119,0h274c65.7,0,119,53.3,119,119v274
	C512,458.7,458.7,512,393,512z"/>
<g>
	<path class="st1" d="M256,92c-90.6,0-164,73.4-164,164s73.4,164,164,164s164-73.4,164-164C419.9,165.5,346.5,92.1,256,92z
		 M256,392.7c-75.5,0-136.7-61.2-136.7-136.7S180.5,119.3,256,119.3S392.7,180.5,392.7,256C392.6,331.4,331.4,392.6,256,392.7z"/>
	<path class="st1" d="M265.8,161.2c-29.7-5.4-58.2,14.3-63.6,44c-0.6,3.2-0.9,6.5-0.9,9.8c0,7.5,6.1,13.7,13.7,13.7
		s13.7-6.1,13.7-13.7c0-15.1,12.2-27.3,27.3-27.4c1.7,0,3.4,0.2,5.1,0.5c11,2.1,19.7,10.8,21.9,21.8c2.2,11.6-3.3,23.3-13.7,29
		c-17,9.9-27.3,28.2-26.9,47.9V297c0,7.5,6.1,13.7,13.7,13.7c7.5,0,13.7-6.1,13.7-13.7v-10.2c-0.3-9.7,4.5-18.8,12.7-23.9
		c26.5-14.5,36.1-47.8,21.6-74.2C296,174.2,282,164.1,265.8,161.2z"/>
	<path class="st1" d="M256,324.3L256,324.3c7.5,0,13.7,6.1,13.7,13.7l0,0c0,7.5-6.1,13.7-13.7,13.7l0,0c-7.5,0-13.7-6.1-13.7-13.7
		l0,0C242.3,330.5,248.5,324.3,256,324.3z"/>
</g>
</svg>
