<?xml version="1.0" encoding="utf-8"?>
<!-- Generator: Adobe Illustrator 24.3.0, SVG Export Plug-In . SVG Version: 6.00 Build 0)  -->
<svg version="1.1" id="Outline" xmlns="http://www.w3.org/2000/svg" xmlns:xlink="http://www.w3.org/1999/xlink" x="0px" y="0px"
	 viewBox="0 0 512 512" style="enable-background:new 0 0 512 512;" xml:space="preserve">
<style type="text/css">
	.st0{fill:#7AA874;}
	.st1{fill:#FFFFFF;}
</style>
<path class="st0" d="M393,512H119C53.3,512,0,458.7,0,393V119C0,53.3,53.3,0,119,0h274c65.7,0,119,53.3,119,119v274
	C512,458.7,458.7,512,393,512z"/>
<path class="st1" d="M408.9,103.1c-10-10.1-24.6-14.3-38.5-11l-220,46.3c-37.6,5.2-63.9,39.8-58.7,77.4c2,14.9,8.9,28.6,19.5,39.2
	l23.6,23.6c2.6,2.6,4,6.1,4,9.7V332c0,6.1,1.4,12.2,4.1,17.7l-0.1,0.1l0.4,0.4c4,8.1,10.6,14.7,18.7,18.6l0.4,0.4l0.1-0.1
	c5.5,2.7,11.5,4.1,17.7,4.1h43.6c3.6,0,7.1,1.4,9.7,4l23.6,23.6c12.8,12.9,30.2,20.2,48.4,20.3c7.5,0,15-1.2,22.1-3.6
	c24.5-8,42.3-29.3,46-54.8l46.4-220.5C423.3,128.1,419.1,113.3,408.9,103.1z M154.3,259.3l-23.6-23.6c-11.2-11-15.1-27.4-9.9-42.3
	c5-15.2,18.5-26.1,34.4-27.9l217.8-45.9L166.3,326.3v-37.9C166.3,277.5,162,267,154.3,259.3z M346.4,357.9
	c-3.1,22.6-24,38.3-46.5,35.2c-8.9-1.2-17.1-5.3-23.4-11.6l-23.7-23.7c-7.7-7.8-18.2-12.1-29.1-12.1h-37.9l206.6-206.6L346.4,357.9z
	"/>
</svg>
