<?xml version="1.0" encoding="utf-8"?>
<!-- Generator: Adobe Illustrator 24.3.0, SVG Export Plug-In . SVG Version: 6.00 Build 0)  -->
<svg version="1.1" id="Layer_1" xmlns="http://www.w3.org/2000/svg" xmlns:xlink="http://www.w3.org/1999/xlink" x="0px" y="0px"
	 viewBox="0 0 24 24" style="enable-background:new 0 0 24 24;" xml:space="preserve">
<style type="text/css">
	.st0{fill:url(#SVGID_1_);}
</style>
<linearGradient id="SVGID_1_" gradientUnits="userSpaceOnUse" x1="2.2714" y1="3.3143" x2="19.6857" y2="20.7286">
	<stop  offset="0" style="stop-color:#FFEDED"/>
	<stop  offset="1" style="stop-color:#FFBBBB"/>
</linearGradient>
<path class="st0" d="M6.5,19L2,22.5V4c0-0.6,0.4-1,1-1h18c0.6,0,1,0.4,1,1v14c0,0.6-0.4,1-1,1H6.5z M12,14.7l3.4-3.4
	c0.9-0.9,0.9-2.3,0-3.2c-0.9-0.9-2.3-0.9-3.2,0L12,8.3l-0.2-0.2c-0.9-0.9-2.3-0.9-3.2,0s-0.9,2.3,0,3.2L12,14.7z"/>
</svg>
