<?xml version="1.0" encoding="utf-8"?>
<!-- Generator: Adobe Illustrator 24.3.0, SVG Export Plug-In . SVG Version: 6.00 Build 0)  -->
<svg version="1.1" id="Capa_1" xmlns="http://www.w3.org/2000/svg" xmlns:xlink="http://www.w3.org/1999/xlink" x="0px" y="0px"
	 viewBox="0 0 512 512" style="enable-background:new 0 0 512 512;" xml:space="preserve">
<style type="text/css">
	.st0{fill:#19A7CE;}
	.st1{fill:#FFFFFF;}
</style>
<path class="st0" d="M393,512H119C53.3,512,0,458.7,0,393V119C0,53.3,53.3,0,119,0h274c65.7,0,119,53.3,119,119v274
	C512,458.7,458.7,512,393,512z"/>
<g>
	<path class="st1" d="M234.1,360.5c-21.9,22.7-57.5,24.8-81.9,4.8c-14.5-12.6-21.9-31.5-19.8-50.6c1.8-14.1,8.4-27.1,18.6-36.9
		l39.6-39.7c8.1-8.1,8.1-21.2,0-29.2l0,0c-8.1-8.1-21.2-8.1-29.2,0l-38.8,38.8c-17.7,17.1-28.8,39.8-31.5,64.2
		c-5,55,35.5,103.7,90.5,108.7c29.5,2.7,58.7-7.9,79.7-28.8l41.5-41.4c8.1-8.1,8.1-21.2,0-29.2l0,0c-8.1-8.1-21.2-8.1-29.2,0
		L234.1,360.5z"/>
	<path class="st1" d="M382.2,110.9c-41.2-30.2-98.3-25.5-133.9,11.1l-39,39c-8.1,8.1-8.1,21.2,0,29.2l0,0c8.1,8.1,21.2,8.1,29.2,0
		l39.6-39.6c21.4-22.1,56-24.6,80.4-5.8c25.1,20.6,28.7,57.5,8.2,82.6c-1.2,1.5-2.5,2.9-3.8,4.2l-41.5,41.5
		c-8.1,8.1-8.1,21.2,0,29.2l0,0c8.1,8.1,21.2,8.1,29.2,0l41.5-41.5c39-39.2,38.9-102.5-0.2-141.6
		C388.9,116.3,385.6,113.5,382.2,110.9z"/>
	<path class="st1" d="M209.3,273.2l64.2-64.2c8.1-8.1,21.2-8.1,29.2,0l0,0c8.1,8.1,8.1,21.2,0,29.2l-64.2,64.2
		c-8.1,8.1-21.2,8.1-29.2,0l0,0C201.2,294.3,201.2,281.2,209.3,273.2z"/>
</g>
</svg>
