<?xml version="1.0" encoding="utf-8"?>
<!-- Generator: Adobe Illustrator 24.3.0, SVG Export Plug-In . SVG Version: 6.00 Build 0)  -->
<svg version="1.1" id="Layer_1" xmlns="http://www.w3.org/2000/svg" xmlns:xlink="http://www.w3.org/1999/xlink" x="0px" y="0px"
	 viewBox="0 0 24 24" style="enable-background:new 0 0 24 24;" xml:space="preserve">
<style type="text/css">
	.st0{fill:url(#SVGID_1_);}
</style>
<linearGradient id="SVGID_1_" gradientUnits="userSpaceOnUse" x1="4.637" y1="4.637" x2="21.6066" y2="21.6066">
	<stop  offset="0" style="stop-color:#00E9D3"/>
	<stop  offset="1" style="stop-color:#00ADEA"/>
</linearGradient>
<path class="st0" d="M18,16.6l4.3,4.3l-1.4,1.4L16.6,18c-1.5,1.2-3.5,2-5.6,2c-5,0-9-4-9-9s4-9,9-9s9,4,9,9
	C20,13.1,19.3,15.1,18,16.6z M16,15.9c1.2-1.3,2-3,2-4.9c0-3.9-3.1-7-7-7s-7,3.1-7,7s3.1,7,7,7c1.9,0,3.6-0.8,4.9-2L16,15.9z"/>
</svg>
