<?xml version="1.0" encoding="utf-8"?>
<!-- Generator: Adobe Illustrator 24.3.0, SVG Export Plug-In . SVG Version: 6.00 Build 0)  -->
<svg version="1.1" id="Outline" xmlns="http://www.w3.org/2000/svg" xmlns:xlink="http://www.w3.org/1999/xlink" x="0px" y="0px"
	 viewBox="0 0 512 512" style="enable-background:new 0 0 512 512;" xml:space="preserve">
<style type="text/css">
	.st0{fill:#0A4D68;}
	.st1{fill:#FFFFFF;}
</style>
<path class="st0" d="M393,512H119C53.3,512,0,458.7,0,393V119C0,53.3,53.3,0,119,0h274c65.7,0,119,53.3,119,119v274
	C512,458.7,458.7,512,393,512z"/>
<g>
	<path class="st1" d="M256,195.3c-33.5,0-60.7,27.2-60.7,60.7s27.2,60.7,60.7,60.7s60.7-27.2,60.7-60.7S289.5,195.3,256,195.3z
		 M256,286.3c-16.8,0-30.3-13.6-30.3-30.3c0-16.8,13.6-30.3,30.3-30.3c16.8,0,30.3,13.6,30.3,30.3
		C286.3,272.8,272.8,286.3,256,286.3z"/>
	<path class="st1" d="M397,284.8l-6.7-3.9c3-16.5,3-33.4,0-49.9l6.7-3.9c21.8-12.6,29.2-40.4,16.7-62.2
		c-12.6-21.8-40.4-29.2-62.2-16.7l-6.7,3.9c-12.7-10.9-27.4-19.3-43.2-24.9v-7.8c0-25.1-20.4-45.5-45.5-45.5s-45.5,20.4-45.5,45.5
		v7.8c-15.8,5.6-30.5,14.1-43.2,25l-6.8-3.9c-21.8-12.6-49.6-5.1-62.2,16.7s-5.1,49.6,16.7,62.2l0,0l6.7,3.9c-3,16.5-3,33.4,0,49.9
		l-6.7,3.9c-21.8,12.6-29.2,40.4-16.7,62.2c12.6,21.8,40.4,29.2,62.2,16.7l0,0l6.7-3.9c12.8,10.9,27.4,19.3,43.2,24.9v7.8
		c0,25.1,20.4,45.5,45.5,45.5s45.5-20.4,45.5-45.5v-7.8c15.8-5.6,30.5-14.1,43.2-25l6.8,3.9c21.8,12.6,49.6,5.1,62.2-16.7
		C426.2,325.2,418.8,297.4,397,284.8L397,284.8L397,284.8z M358.3,227.5c5.1,18.6,5.1,38.3,0,56.9c-1.8,6.7,1,13.7,7,17.2l16.4,9.5
		c7.3,4.2,9.7,13.5,5.6,20.7c-4.2,7.3-13.5,9.7-20.7,5.6l0,0l-16.5-9.5c-6-3.5-13.6-2.4-18.4,2.5c-13.5,13.8-30.5,23.6-49.2,28.4
		c-6.7,1.7-11.4,7.8-11.4,14.7v19c0,8.4-6.8,15.2-15.2,15.2c-8.4,0-15.2-6.8-15.2-15.2v-19c0-6.9-4.7-13-11.4-14.7
		c-18.7-4.8-35.7-14.7-49.2-28.5c-4.9-4.9-12.4-6-18.4-2.5l-16.4,9.5c-7.2,4.2-16.5,1.8-20.8-5.4c-4.2-7.2-1.8-16.5,5.4-20.8
		c0.1,0,0.1-0.1,0.2-0.1l16.4-9.5c6-3.5,8.9-10.5,7-17.2c-5.1-18.6-5.1-38.3,0-56.9c1.8-6.6-1.1-13.7-7.1-17.1l-16.4-9.5
		c-7.3-4.2-9.7-13.5-5.6-20.7c4.2-7.3,13.5-9.7,20.7-5.6l16.5,9.5c6,3.5,13.5,2.5,18.4-2.4c13.5-13.8,30.5-23.6,49.2-28.4
		c6.7-1.7,11.4-7.8,11.4-14.8v-19c0-8.4,6.8-15.2,15.2-15.2c8.4,0,15.2,6.8,15.2,15.2v19c0,6.9,4.7,13,11.4,14.7
		c18.7,4.8,35.7,14.7,49.2,28.5c4.9,4.9,12.4,6,18.4,2.5l16.4-9.5c7.2-4.2,16.5-1.8,20.8,5.4c4.2,7.2,1.8,16.5-5.4,20.8
		c-0.1,0-0.1,0.1-0.2,0.1l-16.4,9.5C359.4,213.9,356.5,220.9,358.3,227.5L358.3,227.5z"/>
</g>
</svg>
