<?xml version="1.0" encoding="utf-8"?>
<!-- Generator: Adobe Illustrator 24.3.0, SVG Export Plug-In . SVG Version: 6.00 Build 0)  -->
<svg version="1.1" id="Layer_1" xmlns="http://www.w3.org/2000/svg" xmlns:xlink="http://www.w3.org/1999/xlink" x="0px" y="0px"
	 viewBox="0 0 512 512" style="enable-background:new 0 0 512 512;" xml:space="preserve">
<style type="text/css">
	.st0{fill:#FF6969;}
	.st1{fill:#FFFFFF;}
</style>
<path class="st0" d="M393,512H119C53.3,512,0,458.7,0,393V119C0,53.3,53.3,0,119,0h274c65.7,0,119,53.3,119,119v274
	C512,458.7,458.7,512,393,512z"/>
<g>
	<path class="st1" d="M250.5,298c-7.7,0-14,6.3-14,14v42c0,23.2-18.8,42-42,42h-34.7c-23.2,0-42-18.8-42-42V158
		c0-23.2,18.8-42,42-42h34.7c23.2,0,42,18.8,42,42v42c0,7.7,6.3,14,14,14c7.7,0,14-6.3,14-14v-42c0-38.6-31.4-70-70-70h-34.7
		c-38.6,0-70,31.4-70,70v196c0,38.6,31.4,70,70,70h34.7c38.6,0,70-31.4,70-70v-42C264.5,304.3,258.2,298,250.5,298z"/>
	<path class="st1" d="M409.9,226.3l-64.2-64.2c-5.4-5.6-14.2-5.7-19.8-0.3c-5.6,5.4-5.7,14.2-0.3,19.8c0.1,0.1,0.2,0.2,0.3,0.3
		l59.7,59.7L173.8,242c-7.7,0-14,6.3-14,14s6.3,14,14,14l0,0l212.6-0.4l-60.5,60.5c-5.6,5.4-5.7,14.2-0.3,19.8
		c5.4,5.6,14.2,5.7,19.8,0.3c0.1-0.1,0.2-0.2,0.3-0.3l64.2-64.2C426.3,269.3,426.3,242.7,409.9,226.3z"/>
</g>
</svg>
