<?xml version="1.0" encoding="utf-8"?>
<!-- Generator: Adobe Illustrator 24.3.0, SVG Export Plug-In . SVG Version: 6.00 Build 0)  -->
<svg version="1.1" id="Layer_1" xmlns="http://www.w3.org/2000/svg" xmlns:xlink="http://www.w3.org/1999/xlink" x="0px" y="0px"
	 viewBox="0 0 512 512" style="enable-background:new 0 0 512 512;" xml:space="preserve">
<style type="text/css">
	.st0{fill:#002B5B;}
	.st1{fill:#FFFFFF;}
</style>
<path class="st0" d="M393,512H119C53.3,512,0,458.7,0,393V119C0,53.3,53.3,0,119,0h274c65.7,0,119,53.3,119,119v274
	C512,458.7,458.7,512,393,512z"/>
<path class="st1" d="M352.2,118.5h-13.8v-13.8c0-7.6-6.1-13.8-13.8-13.8c-7.6,0-13.8,6.2-13.8,13.8v13.8H201v-13.8
	c0-7.6-6.1-13.8-13.8-13.8c-7.6,0-13.8,6.2-13.8,13.8v13.8h-13.8c-37.9,0-68.8,30.8-68.8,68.8v165c0,37.9,30.8,68.8,68.8,68.8h192.5
	c37.9,0,68.8-30.8,68.8-68.8v-165C421,149.3,390.2,118.5,352.2,118.5z M159.8,146h192.5c22.7,0,41.2,18.5,41.2,41.2V201h-275v-13.8
	C118.5,164.5,137,146,159.8,146z M352.2,393.5H159.8c-22.7,0-41.3-18.5-41.3-41.2V228.5h275v123.8C393.5,375,375,393.5,352.2,393.5z
	 M352.2,283.5c0,7.6-6.1,13.8-13.8,13.8h-165c-7.6,0-13.8-6.2-13.8-13.8s6.1-13.8,13.8-13.8h165
	C346.1,269.8,352.2,275.9,352.2,283.5z M256,338.5c0,7.6-6.1,13.8-13.8,13.8h-68.8c-7.6,0-13.8-6.2-13.8-13.8s6.1-13.8,13.8-13.8
	h68.8C249.9,324.8,256,330.9,256,338.5z"/>
</svg>
