<svg xmlns="http://www.w3.org/2000/svg" width="103" height="103" viewBox="0 0 103 103">
  <g id="Group_453" data-name="Group 453" transform="translate(-452 -217)">
    <rect id="Rectangle_856" data-name="Rectangle 856" width="103" height="103" rx="51.5" transform="translate(452 217)" fill="#2ea4fc" opacity="0.13"/>
    <path id="key" d="M23.909,0h-2.36a3.236,3.236,0,0,0-2.3.955l-9.084,9.083a8.189,8.189,0,1,0,5.883,5.883l1.346-1.346V11.951H20.65V8.692h2.623l1.855-1.855a3.241,3.241,0,0,0,.955-2.306V2.173A2.173,2.173,0,0,0,23.909,0Zm0,4.532a1.086,1.086,0,0,1-.318.769L22.373,6.519h-3.9V9.778H15.217v3.9l-1.679,1.679a6.128,6.128,0,0,1,.592,2.575,5.976,5.976,0,1,1-5.976-5.976,4.6,4.6,0,0,1,2.574.591L20.781,2.491a1.1,1.1,0,0,1,.768-.318h2.36ZM5.439,19.557A1.086,1.086,0,1,0,6.525,18.47,1.086,1.086,0,0,0,5.439,19.557Z" transform="translate(490.033 254.959)" fill="#2ea4fc"/>
  </g>
</svg>
