<svg xmlns="http://www.w3.org/2000/svg" width="103" height="103" viewBox="0 0 103 103">
  <g id="Group_454" data-name="Group 454" transform="translate(-591 -217)">
    <rect id="Rectangle_857" data-name="Rectangle 857" width="103" height="103" rx="51.5" transform="translate(591 217)" fill="#799371" opacity="0.13"/>
    <path id="user-pen" d="M9.809,13.078A6.539,6.539,0,1,0,3.269,6.539,6.546,6.546,0,0,0,9.809,13.078Zm0-9.809a3.27,3.27,0,1,1-3.27,3.27A3.274,3.274,0,0,1,9.809,3.27ZM11.988,18.9a6.561,6.561,0,0,0-8.722,5.73,1.634,1.634,0,0,1-1.629,1.527c-.036,0-.072,0-.109,0A1.634,1.634,0,0,1,0,24.415a9.83,9.83,0,0,1,13.075-8.6,1.635,1.635,0,1,1-1.09,3.082ZM25.35,17.455l-7.318,7.318a4.722,4.722,0,0,1-3.339,1.383H13.651a.545.545,0,0,1-.545-.545V24.57a4.724,4.724,0,0,1,1.383-3.339l7.42-7.42A2.5,2.5,0,0,1,25.624,14a2.6,2.6,0,0,1-.275,3.452Z" transform="translate(629 255)" fill="#2ea4fc"/>
  </g>
</svg>
