<svg xmlns="http://www.w3.org/2000/svg" width="103" height="103" viewBox="0 0 103 103">
  <g id="Group_455" data-name="Group 455" transform="translate(-729 -217)">
    <rect id="Rectangle_858" data-name="Rectangle 858" width="103" height="103" rx="51.5" transform="translate(729 217)" fill="#e8232a" opacity="0.13"/>
    <path id="user-gear" d="M15,6a6,6,0,1,0-6,6A6.006,6.006,0,0,0,15,6ZM9,9a3,3,0,1,1,3-3A3,3,0,0,1,9,9Zm-.012,6.314a1.5,1.5,0,0,1-1.3,1.674A5.545,5.545,0,0,0,3,22.5a1.5,1.5,0,0,1-3,0,8.584,8.584,0,0,1,7.314-8.488,1.5,1.5,0,0,1,1.674,1.3ZM23,18.5l-.638-.376a4.638,4.638,0,0,0,0-2.246L23,15.5a1.5,1.5,0,0,0-1.523-2.585l-.648.382A4.977,4.977,0,0,0,19,12.254V11.5a1.5,1.5,0,0,0-3,0v.755a4.977,4.977,0,0,0-1.83,1.043l-.648-.382A1.5,1.5,0,1,0,12,15.5l.638.376a4.638,4.638,0,0,0,0,2.246L12,18.5a1.5,1.5,0,1,0,1.523,2.585l.648-.382A4.977,4.977,0,0,0,16,21.744V22.5a1.5,1.5,0,0,0,3,0v-.755a4.977,4.977,0,0,0,1.83-1.043l.648.382A1.5,1.5,0,0,0,23,18.5Zm-5.5,0A1.5,1.5,0,1,1,19,17,1.5,1.5,0,0,1,17.5,18.5Z" transform="translate(769 257)" fill="#2ea4fc"/>
  </g>
</svg>
