<svg xmlns="http://www.w3.org/2000/svg" width="103" height="103" viewBox="0 0 103 103">
  <g id="Group_458" data-name="Group 458" transform="translate(-868 -217)">
    <g id="Group_457" data-name="Group 457">
      <g id="Group_456" data-name="Group 456">
        <rect id="Rectangle_859" data-name="Rectangle 859" width="103" height="103" rx="51.5" transform="translate(868 217)" fill="#6b3a30" opacity="0.13"/>
        <g id="mode-landscape" transform="translate(908 257)">
          <circle id="Ellipse_16" data-name="Ellipse 16" cx="2.5" cy="2.5" r="2.5" transform="translate(13.5 5.511)" fill="#2ea4fc"/>
          <path id="Path_201" data-name="Path 201" d="M23,16a1,1,0,0,0-1,1v2a3,3,0,0,1-3,3H17a1,1,0,0,0,0,2h2a5.006,5.006,0,0,0,5-5V17A1,1,0,0,0,23,16Z" fill="#2ea4fc"/>
          <path id="Path_202" data-name="Path 202" d="M1,8A1,1,0,0,0,2,7V5A3,3,0,0,1,5,2H7A1,1,0,1,0,7,0H5A5.006,5.006,0,0,0,0,5V7A1,1,0,0,0,1,8Z" fill="#2ea4fc"/>
          <path id="Path_203" data-name="Path 203" d="M7,22H5a3,3,0,0,1-3-3V17a1,1,0,0,0-2,0v2a5.006,5.006,0,0,0,5,5H7a1,1,0,0,0,0-2Z" fill="#2ea4fc"/>
          <path id="Path_204" data-name="Path 204" d="M19,0H17a1,1,0,0,0,0,2h2a3,3,0,0,1,3,3V7a1,1,0,0,0,2,0V5A5.006,5.006,0,0,0,19,0Z" fill="#2ea4fc"/>
          <path id="Path_205" data-name="Path 205" d="M18.707,17.293,11.121,9.707a3,3,0,0,0-4.242,0L4.586,12A2,2,0,0,0,4,13.414V16a3,3,0,0,0,3,3H18a1,1,0,0,0,.707-1.707Z" fill="#2ea4fc"/>
        </g>
      </g>
    </g>
  </g>
</svg>
