<svg xmlns="http://www.w3.org/2000/svg" width="103" height="103" viewBox="0 0 103 103">
  <g id="Group_459" data-name="Group 459" transform="translate(-1006 -217)">
    <rect id="Rectangle_860" data-name="Rectangle 860" width="103" height="103" rx="51.5" transform="translate(1006 217)" fill="#eda341" opacity="0.13"/>
    <g id="_01_align_center" data-name="01 align center" transform="translate(1045.166 254.991)">
      <path id="Path_208" data-name="Path 208" d="M21.445,2.864,12.833.009,4.222,2.864A3.23,3.23,0,0,0,2,5.932V13c0,8.151,9.967,12.652,10.393,12.84l.383.17.4-.132C13.6,25.734,23.667,22.291,23.667,13V5.932a3.232,3.232,0,0,0-2.222-3.068ZM21.5,13c0,6.785-6.878,9.984-8.616,10.683C11.143,22.812,4.167,18.951,4.167,13V5.932a1.077,1.077,0,0,1,.741-1.023l7.926-2.628,7.926,2.628A1.075,1.075,0,0,1,21.5,5.932Z" fill="#2ea4fc"/>
    </g>
  </g>
</svg>
