<?xml version="1.0" encoding="utf-8"?>
<!-- Generator: Adobe Illustrator 24.3.0, SVG Export Plug-In . SVG Version: 6.00 Build 0)  -->
<svg version="1.1" id="Filled" xmlns="http://www.w3.org/2000/svg" xmlns:xlink="http://www.w3.org/1999/xlink" x="0px" y="0px"
	 viewBox="0 0 512 512" style="enable-background:new 0 0 512 512;" xml:space="preserve">
<style type="text/css">
	.st0{fill:#FFA500;}
	.st1{fill:#FFFFFF;}
</style>
<path class="st0" d="M393,512H119C53.3,512,0,458.7,0,393V119C0,53.3,53.3,0,119,0h274c65.7,0,119,53.3,119,119v274
	C512,458.7,458.7,512,393,512z"/>
<g>
	<path class="st1" d="M120.8,345c-9.3,9.3-14.6,22-14.6,35.2v25.6h25.6c13.2,0,25.9-5.3,35.2-14.6l166.2-166.2l-46.2-46.2L120.8,345
		z"/>
	<path class="st1" d="M394.4,117.6c-12.7-12.8-33.4-12.8-46.2,0c0,0,0,0,0,0l-43.7,43.7l46.2,46.2l43.7-43.7
		C407.2,151,407.2,130.4,394.4,117.6C394.4,117.6,394.4,117.6,394.4,117.6z"/>
</g>
</svg>
