<svg xmlns="http://www.w3.org/2000/svg" width="44.416" height="44.397" viewBox="0 0 44.416 44.397">
  <path id="envelope-open" d="M2.267,15.661c.2-.228,13.427-12.988,13.427-12.988A9.3,9.3,0,0,1,28.75,2.7s13.2,12.733,13.4,12.955L26.133,31.671a5.689,5.689,0,0,1-7.851,0ZM28.75,34.3a9.3,9.3,0,0,1-13.084,0L.424,19.053A9.183,9.183,0,0,0,0,21.659v13.5a9.264,9.264,0,0,0,9.253,9.253H35.163a9.264,9.264,0,0,0,9.253-9.253v-13.5a9.183,9.183,0,0,0-.424-2.606Z" transform="translate(0 -0.011)" fill="#2ea4fc"/>
</svg>
