<?xml version="1.0" encoding="utf-8"?>
<!-- Generator: Adobe Illustrator 24.3.0, SVG Export Plug-In . SVG Version: 6.00 Build 0)  -->
<svg version="1.1" id="Layer_1" xmlns="http://www.w3.org/2000/svg" xmlns:xlink="http://www.w3.org/1999/xlink" x="0px" y="0px"
	 viewBox="0 0 512 512" style="enable-background:new 0 0 512 512;" xml:space="preserve">
<style type="text/css">
	.st0{fill:#FF3399;}
	.st1{fill:#FFFFFF;}
</style>
<path class="st0" d="M393,512H119C53.3,512,0,458.7,0,393V119C0,53.3,53.3,0,119,0h274c65.7,0,119,53.3,119,119v274
	C512,458.7,458.7,512,393,512z"/>
<path class="st1" d="M215,256c45.2,0,82-36.8,82-82s-36.8-82-82-82s-82,36.8-82,82S169.8,256,215,256z M215,133
	c22.6,0,41,18.4,41,41s-18.4,41-41,41s-41-18.4-41-41S192.4,133,215,133z M242.3,329c-8.7-3.1-17.9-4.7-27.3-4.7
	c-43.2,0-79.2,33.6-82,76.5c-0.7,10.8-9.7,19.1-20.4,19.1c-0.5,0-0.9,0-1.4,0c-11.3-0.7-19.9-10.5-19.1-21.8
	c4.2-64.4,58.2-114.8,123-114.8c14.1,0,27.9,2.4,41,7c10.7,3.8,16.3,15.5,12.5,26.2C264.7,327.2,253,332.8,242.3,329L242.3,329z
	 M409.9,310.9l-91.8,91.8C307,413.8,291.9,420,276.2,420h-13.1c-3.8,0-6.8-3.1-6.8-6.8v-13.1c0-15.7,6.2-30.8,17.3-41.9l93-93
	c13-13,34.6-12.2,46.6,2.4C423.7,280.3,421.5,299.3,409.9,310.9L409.9,310.9z"/>
</svg>
