<?xml version="1.0" encoding="utf-8"?>
<!-- Generator: Adobe Illustrator 24.3.0, SVG Export Plug-In . SVG Version: 6.00 Build 0)  -->
<svg version="1.1" id="Layer_1" xmlns="http://www.w3.org/2000/svg" xmlns:xlink="http://www.w3.org/1999/xlink" x="0px" y="0px"
	 viewBox="0 0 512 512" style="enable-background:new 0 0 512 512;" xml:space="preserve">
<style type="text/css">
	.st0{fill:#6600FF;}
	.st1{fill:#FFFFFF;}
</style>
<path class="st0" d="M393,512H119C53.3,512,0,458.7,0,393V119C0,53.3,53.3,0,119,0h274c65.7,0,119,53.3,119,119v274
	C512,458.7,458.7,512,393,512z"/>
<path class="st1" d="M296.5,173c0-45.8-37.2-83-83-83s-83,37.2-83,83s37.2,83,83,83S296.5,218.8,296.5,173z M213.5,214.5
	c-22.9,0-41.5-18.6-41.5-41.5s18.6-41.5,41.5-41.5S255,150.1,255,173S236.4,214.5,213.5,214.5z M213.4,301.8
	c1.4,11.4-6.6,21.7-18,23.2c-36.3,4.5-64.8,38-64.8,76.2c0,11.5-9.3,20.8-20.8,20.8S89,412.7,89,401.2
	c0-58.8,44.4-110.3,101.2-117.4C201.5,282.4,211.9,290.5,213.4,301.8L213.4,301.8z M407.2,345.9l-8.8-5.2c1.2-5,1.9-10.2,1.9-15.5
	c0-5.4-0.7-10.5-1.9-15.5l8.8-5.2c9.9-5.8,13.2-18.5,7.3-28.4c-5.8-9.9-18.5-13.1-28.4-7.3l-9,5.3c-7.2-6.5-15.8-11.4-25.3-14.4
	v-10.4c0-11.5-9.3-20.8-20.8-20.8s-20.8,9.3-20.8,20.8v10.4c-9.5,3-18.1,7.9-25.3,14.4l-9-5.3c-9.9-5.8-22.6-2.5-28.4,7.3
	c-5.8,9.9-2.5,22.6,7.3,28.4l8.8,5.2c-1.2,5-1.9,10.2-1.9,15.5s0.7,10.5,1.9,15.5l-8.8,5.2c-9.9,5.8-13.2,18.5-7.3,28.4
	c3.9,6.6,10.8,10.2,17.9,10.2c3.6,0,7.2-0.9,10.5-2.9l9-5.3c7.2,6.5,15.8,11.4,25.3,14.4v10.4c0,11.5,9.3,20.8,20.8,20.8
	s20.8-9.3,20.8-20.8v-10.4c9.5-3,18.1-7.9,25.3-14.4l9,5.3c3.3,2,6.9,2.9,10.5,2.9c7.1,0,14-3.7,17.9-10.2
	C420.3,364.4,417.1,351.7,407.2,345.9L407.2,345.9z M331.1,345.9c-11.4,0-20.8-9.3-20.8-20.8c0-11.4,9.3-20.8,20.8-20.8
	s20.8,9.3,20.8,20.8C351.9,336.6,342.5,345.9,331.1,345.9z"/>
</svg>
