<?xml version="1.0" encoding="utf-8"?>
<!-- Generator: Adobe Illustrator 24.3.0, SVG Export Plug-In . SVG Version: 6.00 Build 0)  -->
<svg version="1.1" id="Outline" xmlns="http://www.w3.org/2000/svg" xmlns:xlink="http://www.w3.org/1999/xlink" x="0px" y="0px"
	 viewBox="0 0 512 512" style="enable-background:new 0 0 512 512;" xml:space="preserve">
<style type="text/css">
	.st0{fill:#0066CC;}
	.st1{fill:#FFFFFF;}
</style>
<path class="st0" d="M393,512H119C53.3,512,0,458.7,0,393V119C0,53.3,53.3,0,119,0h274c65.7,0,119,53.3,119,119v274
	C512,458.7,458.7,512,393,512z"/>
<path class="st1" d="M400.1,278.9l-26.1-94c-19-68.2-89.6-108.1-157.8-89.2c-45.6,12.7-80.5,49.5-90.8,95.7l-20.2,91
	c-8.2,37.1,15.1,73.8,52.2,82c4.9,1.1,9.9,1.6,14.9,1.6h15.3c7.6,37.2,43.9,61.3,81.1,53.7c27.1-5.5,48.2-26.6,53.7-53.7h11.5
	c38,0,68.8-30.8,68.8-68.8C402.6,291.1,401.8,284.9,400.1,278.9L400.1,278.9z M255,393.5c-17.4-0.1-32.9-11.1-38.7-27.5h77.4
	C287.9,382.5,272.4,393.5,255,393.5z M366.7,322.2c-7.8,10.3-19.9,16.3-32.9,16.3H172.2c-22.8,0-41.3-18.5-41.2-41.3
	c0-3,0.3-6,1-8.9l20.2-91c12.1-54.3,65.9-88.5,120.1-76.4c36.3,8.1,65.2,35.5,75.1,71.3l26.1,94C377.1,298.7,374.5,312,366.7,322.2z
	"/>
</svg>
