<?xml version="1.0" encoding="utf-8"?>
<!-- Generator: Adobe Illustrator 24.3.0, SVG Export Plug-In . SVG Version: 6.00 Build 0)  -->
<svg version="1.1" id="Outline" xmlns="http://www.w3.org/2000/svg" xmlns:xlink="http://www.w3.org/1999/xlink" x="0px" y="0px"
	 viewBox="0 0 512 512" style="enable-background:new 0 0 512 512;" xml:space="preserve">
<style type="text/css">
	.st0{fill:#00FF80;}
	.st1{fill:#FFFFFF;}
</style>
<path class="st0" d="M393,512H119C53.3,512,0,458.7,0,393V119C0,53.3,53.3,0,119,0h274c65.7,0,119,53.3,119,119v274
	C512,458.7,458.7,512,393,512z"/>
<path class="st1" d="M345.9,121.2l-85.6-28.5c-2.8-0.9-5.8-0.9-8.6,0l-85.6,28.5c-27.9,9.3-46.8,35.4-46.7,64.8V256
	c0,103.4,125.7,160.4,131.1,162.8c3.5,1.6,7.6,1.6,11.1,0c5.4-2.4,131.1-59.5,131.1-162.8v-69.9
	C392.7,156.6,373.9,130.5,345.9,121.2z M365.3,256c0,74.5-86.4,123.4-109.3,135.1c-23-11.7-109.3-60.4-109.3-135.1v-69.9
	c0-17.6,11.3-33.3,28-38.9l81.3-27.1l81.3,27.1c16.7,5.6,28,21.2,28,38.9V256z"/>
</svg>
