<svg xmlns="http://www.w3.org/2000/svg" width="103" height="103" viewBox="0 0 103 103">
  <g id="Group_451" data-name="Group 451" transform="translate(-1106 -214)">
    <rect id="Rectangle_860" data-name="Rectangle 860" width="103" height="103" rx="51.5" transform="translate(1106 214)" fill="#eda341" opacity="0.13"/>
    <path id="map-marker-cross" d="M29.927,15.671l2.684-2.684L29.927,10.3a1.171,1.171,0,1,1,1.626-1.684l.029.029,2.684,2.684L36.95,8.647a1.171,1.171,0,1,1,1.684,1.627l-.029.029-2.684,2.684,2.684,2.684a1.171,1.171,0,1,1-1.627,1.684l-.029-.029-2.684-2.684-2.684,2.684a1.171,1.171,0,0,1-1.655-1.655Zm-4.733,6.453A12.877,12.877,0,1,1,43.184,3.695q.095.093.188.187a12.877,12.877,0,0,1,0,18.21L38.7,26.411a6.372,6.372,0,0,1-8.889-.022ZM23.73,12.987a10.467,10.467,0,0,0,3.086,7.45l4.606,4.256a4.115,4.115,0,0,0,5.662.022l4.664-4.31A10.536,10.536,0,1,0,23.73,12.987Z" transform="translate(1123.688 250.968)" fill="#2ea4fc"/>
  </g>
</svg>
