<svg xmlns="http://www.w3.org/2000/svg" width="103" height="103" viewBox="0 0 103 103">
  <g id="Group_448" data-name="Group 448" transform="translate(-692 -214)">
    <rect id="Rectangle_857" data-name="Rectangle 857" width="103" height="103" rx="51.5" transform="translate(692 214)" fill="#799371" opacity="0.13"/>
    <path id="heart" d="M21.278,1.917a7.781,7.781,0,0,0-6.687,4.012A7.781,7.781,0,0,0,7.9,1.917,8.267,8.267,0,0,0,0,10.488C0,16.016,5.82,22.054,10.7,26.147a6.048,6.048,0,0,0,7.781,0c4.88-4.093,10.7-10.131,10.7-15.659A8.267,8.267,0,0,0,21.278,1.917Zm-4.359,22.37a3.615,3.615,0,0,1-4.657,0c-6.247-5.241-9.83-10.27-9.83-13.8A5.836,5.836,0,0,1,7.9,4.349a5.836,5.836,0,0,1,5.471,6.14,1.216,1.216,0,0,0,2.432,0,5.836,5.836,0,0,1,5.471-6.14,5.836,5.836,0,0,1,5.471,6.14c0,3.529-3.583,8.558-9.83,13.794Z" transform="translate(729.005 251.083)" fill="#2ea4fc"/>
  </g>
</svg>
