<svg xmlns="http://www.w3.org/2000/svg" width="103" height="103" viewBox="0 0 103 103">
  <g id="Group_450" data-name="Group 450" transform="translate(-968 -214)">
    <rect id="Rectangle_859" data-name="Rectangle 859" width="103" height="103" rx="51.5" transform="translate(968 214)" fill="#6b3a30" opacity="0.13"/>
    <path id="star" d="M24.961,9.2a3.329,3.329,0,0,0-3.212-2.331H17.174l-1.39-4.331a3.379,3.379,0,0,0-6.436,0L7.958,6.869H3.383a3.379,3.379,0,0,0-1.99,6.107L5.117,15.7,3.7,20.084a3.38,3.38,0,0,0,5.219,3.764l3.645-2.683,3.646,2.68a3.379,3.379,0,0,0,5.218-3.76L20.015,15.7l3.728-2.723A3.327,3.327,0,0,0,24.961,9.2Zm-2.454,2.085-4.34,3.172a1.047,1.047,0,0,0-.379,1.169l1.649,5.1a1.285,1.285,0,0,1-1.984,1.429l-4.267-3.142a1.047,1.047,0,0,0-1.24,0L7.679,22.155a1.285,1.285,0,0,1-1.99-1.429l1.655-5.1a1.047,1.047,0,0,0-.379-1.169l-4.34-3.172a1.285,1.285,0,0,1,.758-2.322H8.724a1.047,1.047,0,0,0,1-.727l1.623-5.059a1.285,1.285,0,0,1,2.446,0l1.623,5.059a1.047,1.047,0,0,0,1,.727h5.341a1.285,1.285,0,0,1,.758,2.322Z" transform="translate(1006.991 252.81)" fill="#2ea4fc"/>
  </g>
</svg>
