<svg xmlns="http://www.w3.org/2000/svg" width="103" height="103" viewBox="0 0 103 103">
  <g id="Group_449" data-name="Group 449" transform="translate(-832 -214)">
    <rect id="Rectangle_858" data-name="Rectangle 858" width="103" height="103" rx="51.5" transform="translate(832 214)" fill="#e8232a" opacity="0.13"/>
    <path id="heart-arrow" d="M23.038,18.849v2.708l-3.2-3.2c2.223-2.351,4.252-5.228,4.252-7.934a6.016,6.016,0,0,0-5.76-6.231,6.192,6.192,0,0,0-4.712,2.587A6.191,6.191,0,0,0,8.9,4.189a5.354,5.354,0,0,0-2.569.663L1.481,0,0,1.481l4.7,4.7A6.479,6.479,0,0,0,3.142,10.42c0,5.655,8.857,12.092,9.867,12.807l.605.428.605-.428a42.257,42.257,0,0,0,4.129-3.4l3.21,3.21H18.85v2.094h4.189a2.094,2.094,0,0,0,2.094-2.094V18.849Zm-9.425,2.229C9.469,18.012,5.236,13.525,5.236,10.42A3.927,3.927,0,0,1,8.9,6.283c2.3,0,3.763,2.827,3.775,2.848l.937,1.856.942-1.852c.007-.024,1.466-2.852,3.77-2.852a3.927,3.927,0,0,1,3.665,4.136C21.991,13.523,17.757,18.012,13.614,21.079Z" transform="translate(871 253)" fill="#2ea4fc"/>
  </g>
</svg>
