<svg xmlns="http://www.w3.org/2000/svg" width="103" height="103" viewBox="0 0 103 103">
  <g id="Group_446" data-name="Group 446" transform="translate(-314 -214)">
    <rect id="Rectangle_861" data-name="Rectangle 861" width="103" height="103" rx="51.5" transform="translate(314 214)" fill="#f2599f" opacity="0.25"/>
    <path id="users-alt" d="M21,28a7,7,0,1,1,7-7A7,7,0,0,1,21,28Zm0-10.5A3.5,3.5,0,1,0,24.5,21,3.5,3.5,0,0,0,21,17.5ZM31.5,40.25a10.5,10.5,0,0,0-21,0,1.75,1.75,0,0,0,3.5,0,7,7,0,0,1,14,0,1.75,1.75,0,0,0,3.5,0ZM31.5,14a7,7,0,1,1,7-7A7,7,0,0,1,31.5,14Zm0-10.5A3.5,3.5,0,1,0,35,7,3.5,3.5,0,0,0,31.5,3.5ZM42,26.25a10.51,10.51,0,0,0-10.5-10.5,1.75,1.75,0,0,0,0,3.5,7,7,0,0,1,7,7,1.75,1.75,0,0,0,3.5,0ZM10.5,14a7,7,0,1,1,7-7A7,7,0,0,1,10.5,14Zm0-10.5A3.5,3.5,0,1,0,14,7,3.5,3.5,0,0,0,10.5,3.5Zm-7,22.75a7,7,0,0,1,7-7,1.75,1.75,0,0,0,0-3.5A10.511,10.511,0,0,0,0,26.25a1.75,1.75,0,0,0,3.5,0Z" transform="translate(345 245)" fill="#fff"/>
  </g>
</svg>
